<svg width="1440" height="320" viewBox="0 0 1440 320" fill="none" xmlns="http://www.w3.org/2000/svg">
<path d="M0 96L24 106.7C48 117 96 139 144 160C192 181 240 203 288 186.7C336 171 384 117 432 117.3C480 117 528 171 576 186.7C624 203 672 181 720 176C768 171 816 181 864 192C912 203 960 213 1008 224C1056 235 1104 245 1152 224C1200 203 1248 149 1296 133.3C1344 117 1392 139 1416 149.3L1440 160V320H1416C1392 320 1344 320 1296 320C1248 320 1200 320 1152 320C1104 320 1056 320 1008 320C960 320 912 320 864 320C816 320 768 320 720 320C672 320 624 320 576 320C528 320 480 320 432 320C384 320 336 320 288 320C240 320 192 320 144 320C96 320 48 320 24 320H0V96Z" fill="#1CA3EC"/>
<path d="M0 32L24 42.7C48 53 96 75 144 112C192 149 240 203 288 213.3C336 224 384 192 432 160C480 128 528 96 576 117.3C624 139 672 213 720 250.7C768 288 816 288 864 256C912 224 960 160 1008 138.7C1056 117 1104 139 1152 133.3C1200 128 1248 96 1296 74.7C1344 53 1392 43 1416 37.3L1440 32V320H1416C1392 320 1344 320 1296 320C1248 320 1200 320 1152 320C1104 320 1056 320 1008 320C960 320 912 320 864 320C816 320 768 320 720 320C672 320 624 320 576 320C528 320 480 320 432 320C384 320 336 320 288 320C240 320 192 320 144 320C96 320 48 320 24 320H0V32Z" fill="#2389DA"/>
</svg>
